<svg width="148" height="41" viewBox="0 0 148 41" fill="none" xmlns="http://www.w3.org/2000/svg">
<path d="M20.3942 20.3944C12.5107 20.3944 6.11816 14.0019 6.11816 6.11832H20.3942V20.3944Z" fill="#DBA558"/>
<path d="M34.6701 20.3944C34.6701 12.5108 28.2776 6.11832 20.394 6.11832V20.3944H34.6701Z" fill="#DBA558"/>
<path d="M20.3942 34.6704C12.5107 34.6704 6.11816 28.2779 6.11816 20.3944H20.3942V34.6704Z" fill="#AF7F3A"/>
<path d="M34.6701 34.6704C34.6701 26.7869 28.2776 20.3944 20.394 20.3944V34.6704H34.6701Z" fill="#AF7F3A"/>
<path d="M50.2896 27.3944V12.8489H53.3649V24.8589H59.6007V27.3944H50.2896ZM68.5762 22.7495V16.4853H71.6017V27.3944H68.6969V25.4128H68.5833C68.3371 26.052 67.9275 26.5658 67.3546 26.954C66.7864 27.3423 66.0927 27.5364 65.2736 27.5364C64.5444 27.5364 63.9029 27.3707 63.3489 27.0393C62.7949 26.7078 62.3617 26.2367 62.0492 25.6259C61.7414 25.0151 61.5852 24.2836 61.5804 23.4313V16.4853H64.606V22.8915C64.6107 23.5355 64.7836 24.0445 65.1245 24.4185C65.4654 24.7926 65.9223 24.9796 66.4952 24.9796C66.8598 24.9796 67.2007 24.8967 67.5179 24.731C67.8352 24.5606 68.0908 24.3096 68.285 23.9782C68.4838 23.6467 68.5809 23.2372 68.5762 22.7495ZM76.5502 16.4853L78.5531 20.2992L80.6056 16.4853H83.7093L80.5488 21.9398L83.7946 27.3944H80.7051L78.5531 23.6231L76.4366 27.3944H73.3116L76.5502 21.9398L73.4252 16.4853H76.5502ZM92.502 22.7495V16.4853H95.5275V27.3944H92.6227V25.4128H92.5091C92.2628 26.052 91.8533 26.5658 91.2804 26.954C90.7122 27.3423 90.0185 27.5364 89.1994 27.5364C88.4702 27.5364 87.8287 27.3707 87.2747 27.0393C86.7207 26.7078 86.2875 26.2367 85.975 25.6259C85.6672 25.0151 85.5109 24.2836 85.5062 23.4313V16.4853H88.5318V22.8915C88.5365 23.5355 88.7093 24.0445 89.0502 24.4185C89.3912 24.7926 89.8481 24.9796 90.421 24.9796C90.7856 24.9796 91.1265 24.8967 91.4437 24.731C91.7609 24.5606 92.0166 24.3096 92.2108 23.9782C92.4096 23.6467 92.5067 23.2372 92.502 22.7495ZM97.9476 27.3944V16.4853H100.881V18.3887H100.994C101.193 17.7116 101.527 17.2002 101.996 16.8546C102.465 16.5042 103.004 16.329 103.615 16.329C103.767 16.329 103.93 16.3385 104.105 16.3574C104.28 16.3764 104.434 16.4024 104.567 16.4356V19.1202C104.425 19.0776 104.228 19.0397 103.977 19.0066C103.727 18.9735 103.497 18.9569 103.289 18.9569C102.843 18.9569 102.446 19.0539 102.095 19.2481C101.75 19.4375 101.475 19.7026 101.271 20.0435C101.073 20.3844 100.973 20.7774 100.973 21.2225V27.3944H97.9476ZM108.331 31.4853C107.948 31.4853 107.588 31.4545 107.252 31.393C106.92 31.3361 106.646 31.2628 106.428 31.1728L107.11 28.9143C107.465 29.0232 107.784 29.0824 108.068 29.0918C108.357 29.1013 108.606 29.035 108.814 28.893C109.027 28.7509 109.2 28.5094 109.333 28.1685L109.51 27.7069L105.597 16.4853H108.779L111.037 24.4967H111.151L113.431 16.4853H116.634L112.394 28.5734C112.19 29.1605 111.913 29.6718 111.563 30.1074C111.217 30.5478 110.779 30.8863 110.249 31.1231C109.718 31.3645 109.079 31.4853 108.331 31.4853Z" fill="#1F2937"/>
</svg>
