<svg width="48" height="48" viewBox="0 0 48 48" fill="none" xmlns="http://www.w3.org/2000/svg">
<rect width="48" height="48" rx="24" fill="#FFF2DF"/>
<path d="M32.125 19.625V28.375C32.125 29.4105 31.2855 30.25 30.25 30.25H17.75C16.7145 30.25 15.875 29.4105 15.875 28.375V19.625M32.125 19.625C32.125 18.5895 31.2855 17.75 30.25 17.75H17.75C16.7145 17.75 15.875 18.5895 15.875 19.625M32.125 19.625V19.8273C32.125 20.4784 31.7872 21.0829 31.2327 21.4241L24.9827 25.2703C24.38 25.6411 23.62 25.6411 23.0173 25.2703L16.7673 21.4241C16.2128 21.0829 15.875 20.4784 15.875 19.8273V19.625" stroke="#FF8D28" stroke-width="2" stroke-linecap="round" stroke-linejoin="round"/>
</svg>
