<svg width="16" height="12" viewBox="0 0 16 12" fill="none" xmlns="http://www.w3.org/2000/svg">
<rect width="16" height="11.4286" rx="2.42431" fill="white"/>
<mask id="mask0_3_65" style="mask-type:luminance" maskUnits="userSpaceOnUse" x="0" y="0" width="16" height="12">
<rect width="16" height="11.4286" rx="2.42431" fill="white"/>
</mask>
<g mask="url(#mask0_3_65)">
<path d="M16 11.4287H0V10.667H16V11.4287ZM16 9.9043H0V9.14258H16V9.9043ZM16 8.38086H0V7.61914H16V8.38086ZM16 6.85742H0V6.09473H16V6.85742ZM16 5.33301H0V4.57129H16V5.33301ZM16 3.80957H0V3.04785H16V3.80957ZM16 2.28613H0V1.52344H16V2.28613ZM16 0.761719H0V0H16V0.761719Z" fill="#D02F44"/>
<rect width="6.85714" height="5.33333" fill="#46467F"/>
<g filter="url(#filter0_d_3_65)">
<path d="M1.14282 3.80981C1.35322 3.80981 1.52368 3.98028 1.52368 4.19067C1.5236 4.401 1.35317 4.57153 1.14282 4.57153C0.932492 4.57152 0.762042 4.40099 0.761963 4.19067C0.761963 3.98029 0.932443 3.80983 1.14282 3.80981ZM2.66626 3.80981C2.87665 3.80981 3.04712 3.98028 3.04712 4.19067C3.04704 4.401 2.8766 4.57153 2.66626 4.57153C2.45608 4.57134 2.28548 4.40088 2.2854 4.19067C2.2854 3.9804 2.45603 3.81001 2.66626 3.80981ZM4.19067 3.80981C4.40101 3.80988 4.57153 3.98032 4.57153 4.19067C4.57145 4.40096 4.40096 4.57146 4.19067 4.57153C3.98033 4.57153 3.80989 4.401 3.80981 4.19067C3.80981 3.98028 3.98028 3.80981 4.19067 3.80981ZM5.71411 3.80981C5.92451 3.80981 6.09497 3.98028 6.09497 4.19067C6.09489 4.401 5.92446 4.57153 5.71411 4.57153C5.50386 4.57143 5.33333 4.40094 5.33325 4.19067C5.33325 3.98034 5.50381 3.80992 5.71411 3.80981ZM1.90454 3.0481C2.11494 3.0481 2.2854 3.21856 2.2854 3.42896C2.28523 3.63921 2.11483 3.80981 1.90454 3.80981C1.69434 3.80971 1.52385 3.63914 1.52368 3.42896C1.52368 3.21863 1.69424 3.0482 1.90454 3.0481ZM3.42896 3.0481C3.63914 3.04834 3.80981 3.21871 3.80981 3.42896C3.80965 3.63906 3.63904 3.80957 3.42896 3.80981C3.21866 3.80981 3.04729 3.63921 3.04712 3.42896C3.04712 3.21856 3.21856 3.0481 3.42896 3.0481ZM4.95239 3.0481C5.16279 3.0481 5.33325 3.21856 5.33325 3.42896C5.33308 3.63921 5.16268 3.80981 4.95239 3.80981C4.74212 3.8098 4.5717 3.6392 4.57153 3.42896C4.57153 3.21857 4.74201 3.04811 4.95239 3.0481ZM1.14282 2.2854C1.35322 2.2854 1.52368 2.45684 1.52368 2.66724C1.52343 2.87741 1.35306 3.0481 1.14282 3.0481C0.932601 3.04808 0.762218 2.8774 0.761963 2.66724C0.761963 2.45685 0.932443 2.28542 1.14282 2.2854ZM2.66626 2.2854C2.87665 2.2854 3.04712 2.45684 3.04712 2.66724C3.04686 2.87741 2.8765 3.0481 2.66626 3.0481C2.45619 3.0479 2.28566 2.87729 2.2854 2.66724C2.2854 2.45696 2.45603 2.28559 2.66626 2.2854ZM4.19067 2.2854C4.40101 2.28547 4.57153 2.45689 4.57153 2.66724C4.57128 2.87737 4.40085 3.04803 4.19067 3.0481C3.98044 3.0481 3.81007 2.87741 3.80981 2.66724C3.80981 2.45684 3.98028 2.2854 4.19067 2.2854ZM5.71411 2.2854C5.92451 2.2854 6.09497 2.45684 6.09497 2.66724C6.09472 2.87741 5.92435 3.0481 5.71411 3.0481C5.50396 3.04799 5.33351 2.87735 5.33325 2.66724C5.33325 2.45691 5.50381 2.28551 5.71411 2.2854ZM1.90454 1.52368C2.11485 1.52368 2.28526 1.69427 2.2854 1.90454C2.2854 2.11494 2.11494 2.2854 1.90454 2.2854C1.69424 2.28529 1.52368 2.11487 1.52368 1.90454C1.52382 1.69433 1.69432 1.52379 1.90454 1.52368ZM3.42896 1.52368C3.63905 1.52393 3.80967 1.69442 3.80981 1.90454C3.80981 2.11478 3.63914 2.28515 3.42896 2.2854C3.21856 2.2854 3.04712 2.11494 3.04712 1.90454C3.04726 1.69427 3.21865 1.52368 3.42896 1.52368ZM4.95239 1.52368C5.1627 1.52368 5.33311 1.69427 5.33325 1.90454C5.33325 2.11494 5.16279 2.2854 4.95239 2.2854C4.74201 2.28538 4.57153 2.11492 4.57153 1.90454C4.57167 1.69428 4.7421 1.5237 4.95239 1.52368ZM1.14282 0.761963C1.35319 0.761963 1.52363 0.932471 1.52368 1.14282C1.52368 1.35322 1.35322 1.52368 1.14282 1.52368C0.932471 1.52363 0.761963 1.35319 0.761963 1.14282C0.762013 0.932502 0.932502 0.762013 1.14282 0.761963ZM2.66626 0.761963C2.87662 0.761963 3.04707 0.932473 3.04712 1.14282C3.04712 1.35322 2.87665 1.52368 2.66626 1.52368C2.45603 1.52349 2.2854 1.3531 2.2854 1.14282C2.28545 0.932592 2.45606 0.762156 2.66626 0.761963ZM4.19067 0.761963C4.40098 0.762033 4.57148 0.932516 4.57153 1.14282C4.57153 1.35317 4.40101 1.52361 4.19067 1.52368C3.98028 1.52368 3.80981 1.35322 3.80981 1.14282C3.80987 0.932473 3.98031 0.761963 4.19067 0.761963ZM5.71411 0.761963C5.92447 0.761963 6.09492 0.932473 6.09497 1.14282C6.09497 1.35322 5.92451 1.52368 5.71411 1.52368C5.50381 1.52358 5.33325 1.35315 5.33325 1.14282C5.3333 0.932538 5.50384 0.762069 5.71411 0.761963Z" fill="url(#paint0_linear_3_65)"/>
</g>
</g>
<defs>
<filter id="filter0_d_3_65" x="0.761963" y="0.761963" width="5.33301" height="5.02173" filterUnits="userSpaceOnUse" color-interpolation-filters="sRGB">
<feFlood flood-opacity="0" result="BackgroundImageFix"/>
<feColorMatrix in="SourceAlpha" type="matrix" values="0 0 0 0 0 0 0 0 0 0 0 0 0 0 0 0 0 0 127 0" result="hardAlpha"/>
<feOffset dy="1.21216"/>
<feColorMatrix type="matrix" values="0 0 0 0 0 0 0 0 0 0 0 0 0 0 0 0 0 0 0.06 0"/>
<feBlend mode="normal" in2="BackgroundImageFix" result="effect1_dropShadow_3_65"/>
<feBlend mode="normal" in="SourceGraphic" in2="effect1_dropShadow_3_65" result="shape"/>
</filter>
<linearGradient id="paint0_linear_3_65" x1="0.761963" y1="0.761963" x2="0.761963" y2="4.57153" gradientUnits="userSpaceOnUse">
<stop stop-color="white"/>
<stop offset="1" stop-color="#F0F0F0"/>
</linearGradient>
</defs>
</svg>
