<svg width="16" height="16" viewBox="0 0 16 16" fill="none" xmlns="http://www.w3.org/2000/svg">
<rect y="2.28662" width="16" height="11.4286" rx="2.42431" fill="white"/>
<mask id="mask0_1_3997" style="mask-type:luminance" maskUnits="userSpaceOnUse" x="0" y="2" width="16" height="12">
<rect y="2.28662" width="16" height="11.4286" rx="2.42431" fill="white"/>
</mask>
<g mask="url(#mask0_1_3997)">
<path d="M16 13.7153H0V12.9536H16V13.7153ZM16 12.1909H0V11.4292H16V12.1909ZM16 10.6675H0V9.90576H16V10.6675ZM16 9.14404H0V8.38135H16V9.14404ZM16 7.61963H0V6.85791H16V7.61963ZM16 6.09619H0V5.33447H16V6.09619ZM16 4.57275H0V3.81006H16V4.57275ZM16 3.04834H0V2.28662H16V3.04834Z" fill="#D02F44"/>
<rect y="2.28662" width="6.85714" height="5.33333" fill="#46467F"/>
<g filter="url(#filter0_d_1_3997)">
<path d="M1.14258 6.09619C1.35297 6.09619 1.52344 6.26666 1.52344 6.47705C1.52336 6.68738 1.35292 6.85791 1.14258 6.85791C0.932248 6.85789 0.761798 6.68737 0.761719 6.47705C0.761719 6.26667 0.932199 6.09621 1.14258 6.09619ZM2.66602 6.09619C2.87641 6.09619 3.04688 6.26666 3.04688 6.47705C3.0468 6.68738 2.87636 6.85791 2.66602 6.85791C2.45583 6.85772 2.28524 6.68726 2.28516 6.47705C2.28516 6.26678 2.45579 6.09639 2.66602 6.09619ZM4.19043 6.09619C4.40076 6.09626 4.57129 6.2667 4.57129 6.47705C4.57121 6.68733 4.40072 6.85784 4.19043 6.85791C3.98008 6.85791 3.80965 6.68738 3.80957 6.47705C3.80957 6.26666 3.98004 6.09619 4.19043 6.09619ZM5.71387 6.09619C5.92426 6.09619 6.09473 6.26666 6.09473 6.47705C6.09465 6.68738 5.92421 6.85791 5.71387 6.85791C5.50361 6.8578 5.33309 6.68731 5.33301 6.47705C5.33301 6.26672 5.50356 6.0963 5.71387 6.09619ZM1.9043 5.33447C2.11469 5.33447 2.28516 5.50494 2.28516 5.71533C2.28499 5.92558 2.11459 6.09619 1.9043 6.09619C1.6941 6.09609 1.5236 5.92552 1.52344 5.71533C1.52344 5.505 1.69399 5.33458 1.9043 5.33447ZM3.42871 5.33447C3.6389 5.33472 3.80957 5.50509 3.80957 5.71533C3.8094 5.92543 3.63879 6.09595 3.42871 6.09619C3.21842 6.09619 3.04704 5.92558 3.04688 5.71533C3.04688 5.50494 3.21832 5.33447 3.42871 5.33447ZM4.95215 5.33447C5.16254 5.33447 5.33301 5.50494 5.33301 5.71533C5.33284 5.92558 5.16244 6.09619 4.95215 6.09619C4.74187 6.09617 4.57146 5.92557 4.57129 5.71533C4.57129 5.50495 4.74177 5.33449 4.95215 5.33447ZM1.14258 4.57178C1.35297 4.57178 1.52344 4.74322 1.52344 4.95361C1.52318 5.16379 1.35281 5.33447 1.14258 5.33447C0.932357 5.33446 0.761974 5.16378 0.761719 4.95361C0.761719 4.74323 0.932199 4.57179 1.14258 4.57178ZM2.66602 4.57178C2.87641 4.57178 3.04688 4.74322 3.04688 4.95361C3.04662 5.16379 2.87625 5.33447 2.66602 5.33447C2.45594 5.33428 2.28541 5.16367 2.28516 4.95361C2.28516 4.74334 2.45579 4.57197 2.66602 4.57178ZM4.19043 4.57178C4.40076 4.57185 4.57129 4.74326 4.57129 4.95361C4.57103 5.16375 4.40061 5.3344 4.19043 5.33447C3.98019 5.33447 3.80983 5.16379 3.80957 4.95361C3.80957 4.74322 3.98004 4.57178 4.19043 4.57178ZM5.71387 4.57178C5.92426 4.57178 6.09473 4.74322 6.09473 4.95361C6.09447 5.16379 5.9241 5.33447 5.71387 5.33447C5.50372 5.33437 5.33326 5.16373 5.33301 4.95361C5.33301 4.74328 5.50356 4.57188 5.71387 4.57178ZM1.9043 3.81006C2.1146 3.81006 2.28502 3.98064 2.28516 4.19092C2.28516 4.40131 2.11469 4.57178 1.9043 4.57178C1.69399 4.57167 1.52344 4.40125 1.52344 4.19092C1.52358 3.98071 1.69408 3.81016 1.9043 3.81006ZM3.42871 3.81006C3.63881 3.8103 3.80943 3.98079 3.80957 4.19092C3.80957 4.40116 3.6389 4.57153 3.42871 4.57178C3.21832 4.57178 3.04688 4.40131 3.04688 4.19092C3.04702 3.98064 3.2184 3.81006 3.42871 3.81006ZM4.95215 3.81006C5.16246 3.81006 5.33287 3.98064 5.33301 4.19092C5.33301 4.40131 5.16254 4.57178 4.95215 4.57178C4.74177 4.57176 4.57129 4.4013 4.57129 4.19092C4.57143 3.98065 4.74186 3.81008 4.95215 3.81006ZM1.14258 3.04834C1.35294 3.04834 1.52339 3.21885 1.52344 3.4292C1.52344 3.63959 1.35297 3.81006 1.14258 3.81006C0.932227 3.81001 0.761719 3.63956 0.761719 3.4292C0.761769 3.21888 0.932258 3.04839 1.14258 3.04834ZM2.66602 3.04834C2.87638 3.04834 3.04682 3.21885 3.04688 3.4292C3.04688 3.63959 2.87641 3.81006 2.66602 3.81006C2.45579 3.80986 2.28516 3.63947 2.28516 3.4292C2.28521 3.21897 2.45582 3.04853 2.66602 3.04834ZM4.19043 3.04834C4.40073 3.04841 4.57124 3.21889 4.57129 3.4292C4.57129 3.63955 4.40076 3.80999 4.19043 3.81006C3.98004 3.81006 3.80957 3.63959 3.80957 3.4292C3.80962 3.21885 3.98007 3.04834 4.19043 3.04834ZM5.71387 3.04834C5.92423 3.04834 6.09467 3.21885 6.09473 3.4292C6.09473 3.63959 5.92426 3.81006 5.71387 3.81006C5.50356 3.80995 5.33301 3.63953 5.33301 3.4292C5.33306 3.21891 5.5036 3.04845 5.71387 3.04834Z" fill="url(#paint0_linear_1_3997)"/>
</g>
</g>
<defs>
<filter id="filter0_d_1_3997" x="0.761719" y="3.04834" width="5.33301" height="5.02173" filterUnits="userSpaceOnUse" color-interpolation-filters="sRGB">
<feFlood flood-opacity="0" result="BackgroundImageFix"/>
<feColorMatrix in="SourceAlpha" type="matrix" values="0 0 0 0 0 0 0 0 0 0 0 0 0 0 0 0 0 0 127 0" result="hardAlpha"/>
<feOffset dy="1.21216"/>
<feColorMatrix type="matrix" values="0 0 0 0 0 0 0 0 0 0 0 0 0 0 0 0 0 0 0.06 0"/>
<feBlend mode="normal" in2="BackgroundImageFix" result="effect1_dropShadow_1_3997"/>
<feBlend mode="normal" in="SourceGraphic" in2="effect1_dropShadow_1_3997" result="shape"/>
</filter>
<linearGradient id="paint0_linear_1_3997" x1="0.761719" y1="3.04834" x2="0.761719" y2="6.85791" gradientUnits="userSpaceOnUse">
<stop stop-color="white"/>
<stop offset="1" stop-color="#F0F0F0"/>
</linearGradient>
</defs>
</svg>
