<svg width="189" height="32" viewBox="0 0 189 32" fill="none" xmlns="http://www.w3.org/2000/svg">
<g clip-path="url(#clip0_23_144)">
<path d="M5.61638 16.4112L30.6695 9.7044H8.0756L5.61638 16.4112ZM5.27963 17.3296L4.22712 20.2H4.22858L1.67725 27.3196L30.8753 10.4775L5.27963 17.3296ZM1.25996 28.484L0 32H10.4267L31.2752 11.1706L1.25996 28.484ZM11.5591 32H20.1329L31.845 11.7328L11.5591 32ZM21.0575 32H27.2093L32.5369 12.1354L21.0575 32ZM28.0382 32H33.3101V12.3434L28.0382 32ZM34.1108 32H39.383L34.1108 12.3418V32ZM40.137 31.7202L41.8562 26.9227C42.1157 26.1986 42.2081 25.4358 42.1384 24.6881L34.8844 12.1353L40.137 31.7202ZM40.3088 19.922C41.1716 19.6998 41.9894 19.3494 42.7368 18.8882L35.5786 11.7366L40.3088 19.922ZM43.4096 18.429C44.139 17.8802 44.7841 17.2175 45.3164 16.461L36.1443 11.1703L43.4096 18.429ZM45.7469 15.7856C45.9936 15.3566 46.2062 14.9027 46.3806 14.427L46.8205 13.2277L36.5422 10.4762L45.7469 15.7856ZM47.097 12.4734L48.1123 9.7044H36.7532L47.097 12.4734ZM48.4057 8.9044L49.3052 6.45111C49.424 6.12726 49.5057 5.80143 49.553 5.47747L36.7518 8.9044H48.4057ZM49.6 4.63666C49.559 3.40769 49.0389 2.2574 48.1967 1.40997L36.543 8.13208L49.6 4.63666ZM47.5459 0.861608C46.7771 0.322617 45.835 0 44.794 0H43.5885L36.1422 7.43951L47.5459 0.861608ZM42.4561 0H39.5497L35.5795 6.87029L42.4561 0ZM38.6251 0H36.6205L34.8845 6.47295L38.6251 0ZM35.7915 0H34.1108V6.26674L35.7915 0ZM33.3101 0H31.6298L33.3101 6.26523V0ZM30.8008 0H28.7962L32.5367 6.47276L30.8008 0ZM27.8717 0H24.9637L31.8441 6.87406L27.8717 0ZM23.8313 0H18.3803L31.2774 7.43924L23.8313 0ZM8.36896 8.9044H30.671L10.3624 3.46772L8.36896 8.9044ZM10.6426 2.71453L30.8746 8.13064L16.7789 0H14.7108C12.9246 0 11.3219 1.07696 10.6426 2.71453Z" fill="#FF651D"/>
<path d="M155.062 9.96582H162.12L168.69 21.2977L175.28 9.96582H182.339V24.8483H179.022V10.1146L170.454 24.8483H166.946L158.357 10.1146V24.8483H155.062V9.96582Z" fill="#431500"/>
<path d="M133.8 19.0653C131.291 19.0653 129.271 17.0456 129.271 14.5156C129.271 12.0069 131.291 9.96582 133.8 9.96582H153.041V13.2825H133.8C133.12 13.2825 132.567 13.8353 132.567 14.5156C132.567 15.2172 133.12 15.77 133.8 15.77H148.491C151 15.77 153.041 17.7897 153.041 20.3197C153.041 22.8285 151 24.8483 148.491 24.8483H129.271V21.5529H148.491C149.171 21.5529 149.724 21.0001 149.724 20.3197C149.724 19.6181 149.171 19.0653 148.491 19.0653H133.8Z" fill="#431500"/>
<path d="M121.749 9.96582C124.938 9.96582 127.531 12.5596 127.531 15.77C127.531 18.9591 124.938 21.5529 121.749 21.5529H106.866V24.8483H103.57V9.96582H121.749ZM121.727 18.2362C123.11 18.2362 124.215 17.1306 124.215 15.77C124.215 14.3881 123.11 13.2825 121.727 13.2825H106.866V18.2362H121.727Z" fill="#431500"/>
<path d="M85.8431 13.2825C83.5471 13.2825 81.6967 15.1321 81.6967 17.407C81.6967 19.7032 83.5471 21.5529 85.8431 21.5529H98.1319V18.9591H85.5239V15.6637H101.448V24.8483H85.8431C81.7183 24.8483 78.4016 21.5316 78.4016 17.407C78.4016 13.3037 81.7183 9.96582 85.8431 9.96582H101.448V13.2825H85.8431Z" fill="#431500"/>
<path d="M57.063 24.8483V9.96582H60.3584V21.5529H77.0055V24.8483H57.063Z" fill="#431500"/>
<path d="M188.511 9.13417C188.511 10.2023 187.645 11.0683 186.577 11.0683C185.509 11.0683 184.643 10.2023 184.643 9.13417C184.643 8.06593 185.509 7.20001 186.577 7.20001C187.645 7.20001 188.511 8.06593 188.511 9.13417Z" fill="#431500"/>
</g>
<defs>
<clipPath id="clip0_23_144">
<rect width="188.8" height="32" fill="white"/>
</clipPath>
</defs>
</svg>
