<svg width="110" height="32" viewBox="0 0 110 32" fill="none" xmlns="http://www.w3.org/2000/svg">
<g clip-path="url(#clip0_23_115)">
<path d="M35.5063 5.02985H38.9196V4.17864H36.5353V0H35.5063V5.02985ZM44.8066 6.26087C45.3458 6.26087 45.8142 6.13425 46.1193 5.85286C46.389 5.60664 46.5522 5.26193 46.5522 4.75543V1.42096H45.6226V1.80083H45.6084C45.3885 1.49834 45.0549 1.32247 44.6008 1.32247C43.6782 1.32247 43.0254 2.01187 43.0254 3.08819C43.0254 4.17858 43.8202 4.81171 44.6291 4.81171C45.0904 4.81171 45.3671 4.62881 45.58 4.38962H45.6013V4.78357C45.6013 5.27601 45.3387 5.53629 44.7924 5.53629C44.3453 5.53629 44.1395 5.36042 44.0614 5.13531H43.1034C43.2028 5.83878 43.8131 6.26087 44.8066 6.26087ZM44.7924 4.04492C44.2956 4.04492 43.9692 3.68615 43.9692 3.07413C43.9692 2.46913 44.2956 2.08926 44.7853 2.08926C45.3672 2.08926 45.651 2.53949 45.651 3.06709C45.651 3.60173 45.4026 4.04492 44.7924 4.04492ZM51.0535 0.85824H52.0186V0H51.0535V0.85824ZM51.0535 5.02985H52.0186V1.42102H51.0535V5.02985ZM57.9756 5.13531C58.8839 5.13531 59.5084 4.69915 59.5084 3.97457C59.5084 3.13041 58.8343 2.96157 58.224 2.83494C57.7059 2.72942 57.2234 2.70128 57.2234 2.39176C57.2234 2.13147 57.4718 1.99078 57.8479 1.99078C58.2594 1.99078 58.5078 2.13147 58.5504 2.51838H59.4233C59.3523 1.7938 58.8201 1.32247 57.8621 1.32247C57.0318 1.32247 56.379 1.69531 56.379 2.47617C56.379 3.26406 57.0176 3.43993 57.6704 3.56656C58.1672 3.66504 58.6285 3.70022 58.6285 4.04492C58.6285 4.29817 58.3872 4.45997 57.9614 4.45997C57.5286 4.45997 57.2305 4.27707 57.1667 3.86202H56.2725C56.3293 4.62881 56.9183 5.13531 57.9756 5.13531ZM63.6019 5.02979H64.567V2.93343C64.567 2.45507 64.8296 2.14554 65.2199 2.14554C65.5746 2.14554 65.7804 2.35658 65.7804 2.7646V5.02979H66.7455V2.93343C66.7455 2.45507 66.9939 2.14554 67.3984 2.14554C67.7532 2.14554 67.959 2.35658 67.959 2.7646V5.02979H68.9241V2.6028C68.9241 1.81491 68.4912 1.32247 67.7248 1.32247C67.2636 1.32247 66.8804 1.56166 66.632 1.9556H66.6178C66.4404 1.57572 66.0714 1.32247 65.6101 1.32247C65.1063 1.32247 64.7515 1.57572 64.5528 1.90636H64.5315V1.42096H63.6019V5.02979ZM63.0751 5.02987V1.42104H62.1101V3.50333C62.1101 3.9817 61.8332 4.31936 61.3791 4.31936C60.9675 4.31936 60.7759 4.08721 60.7759 3.66513V1.42104H59.818V3.82693C59.818 4.61482 60.2721 5.12836 61.0811 5.12836C61.592 5.12836 61.8759 4.93842 62.1242 4.60778H62.1455V5.02987H63.0751ZM52.5431 6.21162H53.5081V4.62177H53.5223C53.7281 4.9313 54.0617 5.13531 54.5726 5.13531C55.5093 5.13531 56.1479 4.39666 56.1479 3.22889C56.1479 2.10333 55.5305 1.32247 54.5654 1.32247C54.0687 1.32247 53.7281 1.55462 53.4939 1.87118H53.4727V1.42096H52.5431V6.21162ZM54.3668 4.34038C53.792 4.34038 53.4868 3.91126 53.4868 3.25703C53.4868 2.60983 53.7281 2.09629 54.3313 2.09629C54.9274 2.09629 55.1686 2.57466 55.1686 3.25703C55.1686 3.9394 54.8564 4.34038 54.3668 4.34038ZM48.8005 5.13531C49.9289 5.13531 50.7024 4.30521 50.7024 3.22889C50.7024 2.15257 49.9289 1.32247 48.8005 1.32247C47.6723 1.32247 46.8988 2.15257 46.8988 3.22889C46.8988 4.30521 47.6723 5.13531 48.8005 5.13531ZM48.8005 4.40369C48.2045 4.40369 47.8781 3.93237 47.8781 3.22889C47.8781 2.52541 48.2045 2.04705 48.8005 2.04705C49.3895 2.04705 49.7231 2.52541 49.7231 3.22889C49.7231 3.93237 49.3895 4.40369 48.8005 4.40369ZM40.9498 5.13531C42.0782 5.13531 42.8516 4.30521 42.8516 3.22889C42.8516 2.15257 42.0782 1.32247 40.9498 1.32247C39.8216 1.32247 39.0481 2.15257 39.0481 3.22889C39.0481 4.30521 39.8216 5.13531 40.9498 5.13531ZM40.9498 4.40369C40.3537 4.40369 40.0273 3.93237 40.0273 3.22889C40.0273 2.52541 40.3537 2.04705 40.9498 2.04705C41.5388 2.04705 41.8724 2.52541 41.8724 3.22889C41.8724 3.93237 41.5388 4.40369 40.9498 4.40369Z" fill="#6C798B"/>
<path d="M36.2026 27.8084H37.845V24.4582H41.3678V23.0547H37.845V21.108H42.0021V19.7159H36.2026V27.8084ZM47.8437 27.978C49.3955 27.978 50.3583 26.9933 50.4602 25.7597H48.9764C48.8744 26.4161 48.4327 26.7444 47.8097 26.7444C46.8696 26.7444 46.4278 26.0086 46.4278 24.9108C46.4278 23.7903 46.9035 23.0772 47.8324 23.0772C48.3987 23.0772 48.7951 23.4621 48.8971 23.9714H50.4036C50.1997 22.7151 49.2709 21.8436 47.7644 21.8436C45.9974 21.8436 44.8647 23.1791 44.8647 24.9108C44.8647 26.6424 46.0087 27.978 47.8437 27.978ZM54.7043 21.0967H56.2448V19.7159H54.7043V21.0967ZM54.7043 27.8084H56.2448V22.0022H54.7043V27.8084ZM65.0593 22.002H63.5528V27.8082H65.0933V24.5147C65.0933 23.7224 65.5917 23.1791 66.2713 23.1791C66.9169 23.1791 67.2794 23.6205 67.2794 24.243V27.8082H68.8199V24.0166C68.8199 22.749 68.0157 21.8436 66.815 21.8436C66.0221 21.8436 65.4897 22.1718 65.0933 22.7943H65.0593V22.002ZM75.5214 27.8084H77.0621V19.7159H75.5214V27.8084ZM88.6643 27.978C90.4654 27.978 91.7004 26.6424 91.7004 24.9108C91.7004 23.1791 90.4654 21.8436 88.6643 21.8436C86.8632 21.8436 85.6288 23.1791 85.6288 24.9108C85.6288 26.6424 86.8632 27.978 88.6643 27.978ZM88.6643 26.8009C87.7133 26.8009 87.1918 26.0426 87.1918 24.9108C87.1918 23.779 87.7133 23.0093 88.6643 23.0093C89.6048 23.0093 90.1367 23.779 90.1367 24.9108C90.1367 26.0426 89.6048 26.8009 88.6643 26.8009ZM101.318 27.978C103.12 27.978 104.354 26.6424 104.354 24.9108C104.354 23.1791 103.12 21.8436 101.318 21.8436C99.5174 21.8436 98.2823 23.1791 98.2823 24.9108C98.2823 26.6424 99.5174 27.978 101.318 27.978ZM101.318 26.8009C100.367 26.8009 99.846 26.0426 99.846 24.9108C99.846 23.779 100.367 23.0093 101.318 23.0093C102.258 23.0093 102.791 23.779 102.791 24.9108C102.791 26.0426 102.258 26.8009 101.318 26.8009ZM36.2026 16.3814H39.2271C40.2467 16.3814 41.0283 16.1028 41.6287 15.6126C42.4783 14.9106 42.9201 13.7741 42.9201 12.4816C42.9201 10.1305 41.5267 8.41462 39.3631 8.41462H36.2026V16.3814ZM37.8452 14.9886V9.79626H39.1592C40.5525 9.79626 41.2548 10.8994 41.2548 12.4816C41.2548 14.0638 40.6545 14.9886 39.1139 14.9886H37.8452ZM49.6619 18.2534H51.2025V15.7352H51.2252C51.5536 16.2254 52.086 16.5485 52.9017 16.5485C54.3969 16.5485 55.4164 15.3786 55.4164 13.529C55.4164 11.7462 54.4309 10.5094 52.8903 10.5094C52.0974 10.5094 51.5536 10.8771 51.1798 11.3785H51.1459V10.6654H49.6619V18.2534ZM52.5731 15.2895C51.6556 15.2895 51.1685 14.6098 51.1685 13.5736C51.1685 12.5485 51.5536 11.735 52.5165 11.735C53.468 11.735 53.8532 12.4927 53.8532 13.5736C53.8532 14.6543 53.3548 15.2895 52.5731 15.2895ZM63.3469 10.6654H61.8629V16.3814H63.4035V13.5958C63.4035 12.3924 64.1285 11.8687 65.1367 11.9691H65.1706V10.6431C65.08 10.6097 64.9781 10.5986 64.8081 10.5986C64.1285 10.5986 63.732 10.9328 63.3809 11.5791H63.3469V10.6654ZM69.462 16.3814H71.0023V13.061C71.0023 12.3033 71.4214 11.813 72.0445 11.813C72.6112 11.813 72.9398 12.1474 72.9398 12.7936V16.3814H74.4805V13.061C74.4805 12.3033 74.8767 11.813 75.5228 11.813C76.0888 11.813 76.4174 12.1474 76.4174 12.7936V16.3814H77.9581V12.5373C77.9581 11.2893 77.2667 10.5094 76.0435 10.5094C75.3069 10.5094 74.6957 10.8882 74.2988 11.5122H74.2766C73.9932 10.9106 73.4042 10.5094 72.6676 10.5094C71.8635 10.5094 71.2968 10.9106 70.98 11.4342H70.9459V10.6654H69.462V16.3814ZM86.3891 10.6654H84.8825V16.3814H86.4225V13.139C86.4225 12.359 86.921 11.8242 87.6012 11.8242C88.2466 11.8242 88.6093 12.2587 88.6093 12.8716V16.3814H90.15V12.6487C90.15 11.4008 89.3452 10.5094 88.1449 10.5094C87.3519 10.5094 86.8193 10.8325 86.4225 11.4454H86.3891V10.6654ZM98.6012 16.5374C99.5529 16.5374 100.304 16.192 100.855 15.5012C101.407 14.8104 101.682 13.9821 101.682 13.0164C101.682 12.2439 101.452 11.6274 100.991 11.1668C100.53 10.7062 99.9414 10.476 99.2243 10.476C98.2949 10.476 97.5478 10.8251 96.9811 11.5234C96.4144 12.2142 96.1318 13.0461 96.1318 14.0192C96.1318 14.8066 96.3615 15.4232 96.8224 15.8689C97.2909 16.3146 97.8834 16.5374 98.6012 16.5374ZM97.0375 14.0081C97.0375 13.243 97.2269 12.5856 97.6042 12.0359C97.9892 11.4862 98.5218 11.2114 99.2013 11.2114C99.7151 11.2114 100.104 11.3822 100.368 11.7239C100.633 12.0656 100.764 12.4964 100.764 13.0164C100.764 13.7964 100.576 14.4538 100.198 14.9886C99.8202 15.5235 99.2995 15.7909 98.6346 15.7909C98.1215 15.7909 97.7247 15.6274 97.4455 15.3006C97.174 14.9663 97.0375 14.5355 97.0375 14.0081ZM102.297 11.3451H103.09L102.137 16.2131L102.104 16.3815H102.999L103.951 11.5135L103.985 11.3451H105.061L105.208 10.6209H104.132L104.302 9.74067C104.347 9.51779 104.423 9.35807 104.529 9.26151C104.634 9.16495 104.827 9.11667 105.106 9.11667C105.235 9.11667 105.352 9.12036 105.457 9.1278L105.605 8.3701C105.439 8.35528 105.272 8.34784 105.106 8.34784C104.608 8.34784 104.226 8.45184 103.962 8.65984C103.698 8.86784 103.516 9.21323 103.418 9.69608L103.237 10.6209H102.444L102.297 11.3451ZM90.5545 11.6682H91.3586V15.0221C91.3586 16.1029 92.1857 16.3926 92.9334 16.3926C93.5447 16.3926 93.8962 16.3703 93.8962 16.3703V15.2561C93.8962 15.2561 93.6359 15.2672 93.443 15.2672C93.1033 15.2672 92.8652 15.1224 92.8652 14.6989V11.6682H93.8621V10.6654H92.8652V8.88259H91.3586V10.6654H90.5545V11.6682ZM81.5449 16.5485C83.0404 16.5485 83.958 15.6906 84.1731 14.6767H82.6554C82.4855 15.1112 82.1339 15.3786 81.5338 15.3786C80.6614 15.3786 80.163 14.8326 80.0495 13.9524H84.2636C84.2636 11.9133 83.2666 10.5094 81.3973 10.5094C79.6986 10.5094 78.5318 11.8242 78.5318 13.5179C78.5318 15.2226 79.6192 16.5485 81.5449 16.5485ZM81.4203 11.6794C82.1228 11.6794 82.6101 12.1807 82.6554 12.905H80.0724C80.2082 12.1585 80.6043 11.6794 81.4203 11.6794ZM65.4554 11.6682H66.2596V15.0221C66.2596 16.1029 67.0866 16.3926 67.8343 16.3926C68.4459 16.3926 68.7971 16.3703 68.7971 16.3703V15.2561C68.7971 15.2561 68.5366 15.2672 68.344 15.2672C68.0042 15.2672 67.7663 15.1224 67.7663 14.6989V11.6682H68.7631V10.6654H67.7663V8.88259H66.2596V10.6654H65.4554V11.6682ZM59.6979 16.3814H61.1818V16.3258C61.0459 16.2255 60.9779 15.9692 60.9779 15.5346V12.6264C60.9779 11.2894 60.2756 10.5206 58.5311 10.5206C56.8319 10.5206 56.073 11.4008 56.0276 12.4036H57.3983C57.4436 11.8577 57.7948 11.6014 58.5198 11.6014C59.1655 11.6014 59.494 11.8688 59.494 12.2811C59.494 12.7156 59.0521 12.7936 58.0893 12.9273C56.7979 13.1056 55.7558 13.5067 55.7558 14.7659C55.7558 15.9023 56.5941 16.5151 57.7835 16.5151C58.7803 16.5151 59.1995 16.1809 59.494 15.7464H59.5166C59.5506 16.0027 59.6072 16.2701 59.6979 16.3814ZM58.1572 15.4566C57.6135 15.4566 57.2511 15.2672 57.2511 14.7324C57.2511 14.1976 57.6476 14.0193 58.4518 13.841C58.8369 13.7519 59.2561 13.6627 59.5279 13.5067V14.3647C59.5279 14.9218 59.0409 15.4566 58.1572 15.4566ZM46.3246 16.5485C47.8198 16.5485 48.7374 15.6906 48.9526 14.6767H47.4347C47.2647 15.1112 46.9136 15.3786 46.3132 15.3786C45.441 15.3786 44.9426 14.8326 44.8293 13.9524H49.0433C49.0433 11.9133 48.0464 10.5094 46.1773 10.5094C44.4781 10.5094 43.3114 11.8242 43.3114 13.5179C43.3114 15.2226 44.3988 16.5485 46.3246 16.5485ZM46.2 11.6794C46.9023 11.6794 47.3894 12.1807 47.4347 12.905H44.8519C44.9879 12.1585 45.3844 11.6794 46.2 11.6794ZM107.332 27.978C108.782 27.978 109.778 27.2763 109.778 26.1105C109.778 24.7524 108.702 24.4807 107.728 24.277C106.901 24.1072 106.131 24.0619 106.131 23.5639C106.131 23.1452 106.527 22.9188 107.128 22.9188C107.785 22.9188 108.181 23.1452 108.249 23.7677H109.642C109.529 22.6019 108.679 21.8436 107.151 21.8436C105.825 21.8436 104.783 22.4434 104.783 23.6998C104.783 24.9674 105.803 25.2503 106.844 25.4541C107.637 25.6125 108.374 25.6691 108.374 26.2237C108.374 26.6312 107.989 26.8915 107.309 26.8915C106.618 26.8915 106.142 26.5972 106.04 25.9294H104.613C104.703 27.1631 105.644 27.978 107.332 27.978ZM94.8821 29.7889C95.7426 29.7889 96.4903 29.5852 96.9776 29.1325C97.4079 28.7363 97.6683 28.1817 97.6683 27.3668V22.002H96.1847V22.6132H96.1617C95.8108 22.1266 95.2782 21.8436 94.5535 21.8436C93.081 21.8436 92.0388 22.9528 92.0388 24.6845C92.0388 26.4388 93.3073 27.4574 94.5987 27.4574C95.3346 27.4574 95.7767 27.1631 96.1164 26.7783H96.1505V27.4121C96.1505 28.2044 95.7314 28.6231 94.8591 28.6231C94.1455 28.6231 93.8169 28.3402 93.6923 27.978H92.1634C92.3221 29.1098 93.2961 29.7889 94.8821 29.7889ZM94.8591 26.2237C94.0661 26.2237 93.5454 25.6465 93.5454 24.6618C93.5454 23.6884 94.0661 23.0772 94.8479 23.0772C95.7767 23.0772 96.2299 23.8016 96.2299 24.6504C96.2299 25.5106 95.8331 26.2237 94.8591 26.2237ZM79.9144 27.8084H85.3629V26.4388H81.5567V19.7159H79.9144V27.8084ZM73.3339 27.8082H74.8175V27.7517C74.6817 27.6498 74.6135 27.3894 74.6135 26.948V23.994C74.6135 22.6358 73.9117 21.8549 72.1671 21.8549C70.4683 21.8549 69.7088 22.749 69.6635 23.7677H71.0343C71.0796 23.2131 71.4305 22.9528 72.1559 22.9528C72.8013 22.9528 73.1299 23.2244 73.1299 23.6431C73.1299 24.0846 72.6878 24.1638 71.725 24.2996C70.4342 24.4807 69.3919 24.8882 69.3919 26.1671C69.3919 27.3215 70.2302 27.9441 71.4193 27.9441C72.4163 27.9441 72.8354 27.6045 73.1299 27.1631H73.1522C73.1863 27.4234 73.2434 27.695 73.3339 27.8082ZM71.7932 26.8688C71.2495 26.8688 70.8867 26.6764 70.8867 26.1332C70.8867 25.5899 71.2836 25.4088 72.0877 25.2277C72.4727 25.1371 72.8918 25.0466 73.164 24.8882V25.7597C73.164 26.3256 72.6767 26.8688 71.7932 26.8688ZM59.8955 27.978C61.6965 27.978 62.9312 26.6424 62.9312 24.9108C62.9312 23.1791 61.6965 21.8436 59.8955 21.8436C58.0945 21.8436 56.8599 23.1791 56.8599 24.9108C56.8599 26.6424 58.0945 27.978 59.8955 27.978ZM59.8955 26.8009C58.944 26.8009 58.423 26.0426 58.423 24.9108C58.423 23.779 58.944 23.0093 59.8955 23.0093C60.8357 23.0093 61.3681 23.779 61.3681 24.9108C61.3681 26.0426 60.8357 26.8009 59.8955 26.8009ZM50.6979 23.0207H51.5021V26.4274C51.5021 27.5253 52.329 27.8196 53.0766 27.8196C53.6882 27.8196 54.0394 27.797 54.0394 27.797V26.6651C54.0394 26.6651 53.7789 26.6765 53.5863 26.6765C53.2465 26.6765 53.0086 26.5293 53.0086 26.0992V23.0207H54.0054V22.002H53.0086V20.1912H51.5021V22.002H50.6979V23.0207ZM42.7091 27.8084H44.2496V22.0022H42.7091V27.8084ZM42.7091 21.0967H44.2496V19.7159H42.7091V21.0967Z" fill="#212F43"/>
<path d="M10.443 20.1955V25.065H2.78481V0.0215454H0V27.8476H10.443V31.3259H19.1456C23.9519 31.3259 27.8481 27.4327 27.8481 22.6302C27.8481 20.8915 27.3355 19.273 26.4557 17.9142V6.97806H15.3165V9.76067H24.3671V13.9346H15.3165V20.1955H18.1013V16.7172H19.1456C22.4138 16.7172 25.0633 19.3646 25.0633 22.6302C25.0633 25.8959 22.4138 28.5433 19.1456 28.5433H13.2278V22.9781H15.3165V20.1955H10.443V2.80416H26.4557V0.0215454H7.65823V20.1955H10.443Z" fill="#1E79F8"/>
</g>
<defs>
<clipPath id="clip0_23_115">
<rect width="110" height="32" fill="white"/>
</clipPath>
</defs>
</svg>
