<svg width="148" height="41" viewBox="0 0 148 41" fill="none" xmlns="http://www.w3.org/2000/svg">
<path d="M20.3944 20.3944C12.5108 20.3944 6.11831 14.0019 6.11831 6.11833H20.3944V20.3944Z" fill="#DBA558"/>
<path d="M34.6704 20.3944C34.6704 12.5108 28.2779 6.11833 20.3944 6.11833V20.3944H34.6704Z" fill="#DBA558"/>
<path d="M20.3944 34.6704C12.5108 34.6704 6.11831 28.2779 6.11831 20.3944H20.3944V34.6704Z" fill="#AF7F3A"/>
<path d="M34.6704 34.6704C34.6704 26.7869 28.2779 20.3944 20.3944 20.3944V34.6704H34.6704Z" fill="#AF7F3A"/>
<path d="M50.2898 27.3944V12.8489H53.365V24.8589H59.6008V27.3944H50.2898ZM68.5763 22.7495V16.4853H71.6019V27.3944H68.6971V25.4128H68.5834C68.3372 26.052 67.9277 26.5658 67.3547 26.954C66.7866 27.3423 66.0929 27.5364 65.2738 27.5364C64.5446 27.5364 63.903 27.3707 63.3491 27.0393C62.7951 26.7078 62.3618 26.2367 62.0493 25.6259C61.7416 25.0151 61.5853 24.2836 61.5806 23.4313V16.4853H64.6062V22.8915C64.6109 23.5355 64.7837 24.0445 65.1246 24.4185C65.4655 24.7926 65.9224 24.9796 66.4954 24.9796C66.8599 24.9796 67.2009 24.8967 67.5181 24.731C67.8353 24.5606 68.091 24.3096 68.2851 23.9782C68.484 23.6467 68.5811 23.2372 68.5763 22.7495ZM76.5504 16.4853L78.5532 20.2992L80.6058 16.4853H83.7095L80.549 21.9398L83.7947 27.3944H80.7052L78.5532 23.6231L76.4368 27.3944H73.3118L76.5504 21.9398L73.4254 16.4853H76.5504ZM92.5021 22.7495V16.4853H95.5277V27.3944H92.6229V25.4128H92.5092C92.263 26.052 91.8534 26.5658 91.2805 26.954C90.7123 27.3423 90.0187 27.5364 89.1996 27.5364C88.4704 27.5364 87.8288 27.3707 87.2748 27.0393C86.7209 26.7078 86.2876 26.2367 85.9751 25.6259C85.6674 25.0151 85.5111 24.2836 85.5064 23.4313V16.4853H88.5319V22.8915C88.5367 23.5355 88.7095 24.0445 89.0504 24.4185C89.3913 24.7926 89.8482 24.9796 90.4211 24.9796C90.7857 24.9796 91.1266 24.8967 91.4439 24.731C91.7611 24.5606 92.0168 24.3096 92.2109 23.9782C92.4098 23.6467 92.5068 23.2372 92.5021 22.7495ZM97.9478 27.3944V16.4853H100.881V18.3887H100.995C101.194 17.7116 101.527 17.2002 101.996 16.8546C102.465 16.5042 103.005 16.329 103.615 16.329C103.767 16.329 103.93 16.3385 104.105 16.3574C104.281 16.3764 104.435 16.4024 104.567 16.4356V19.1202C104.425 19.0776 104.229 19.0397 103.978 19.0066C103.727 18.9734 103.497 18.9569 103.289 18.9569C102.844 18.9569 102.446 19.0539 102.096 19.2481C101.75 19.4375 101.475 19.7026 101.272 20.0435C101.073 20.3844 100.973 20.7774 100.973 21.2225V27.3944H97.9478ZM108.331 31.4853C107.948 31.4853 107.588 31.4545 107.252 31.3929C106.92 31.3361 106.646 31.2627 106.428 31.1728L107.11 28.9143C107.465 29.0232 107.784 29.0823 108.069 29.0918C108.357 29.1013 108.606 29.035 108.814 28.8929C109.027 28.7509 109.2 28.5094 109.333 28.1685L109.51 27.7069L105.597 16.4853H108.779L111.037 24.4966H111.151L113.431 16.4853H116.634L112.394 28.5733C112.19 29.1605 111.913 29.6718 111.563 30.1074C111.217 30.5478 110.779 30.8863 110.249 31.1231C109.719 31.3645 109.079 31.4853 108.331 31.4853Z" fill="#1F2937"/>
</svg>
